<svg xmlns="http://www.w3.org/2000/svg" xmlns:xlink="http://www.w3.org/1999/xlink" width="500" zoomAndPan="magnify" viewBox="0 0 375 374.999991" height="500" preserveAspectRatio="xMidYMid meet" version="1.2"><defs><clipPath id="131dbd7858"><path d="M 37.5 72.136719 L 337.5 72.136719 L 337.5 303 L 37.5 303 Z M 37.5 72.136719 "/></clipPath></defs><g id="61a384e8bf"><g clip-rule="nonzero" clip-path="url(#131dbd7858)"><path style=" stroke:none;fill-rule:evenodd;fill:#000000;fill-opacity:1;" d="M 316.835938 166.0625 L 316.835938 140.890625 C 316.835938 130.417969 308.265625 121.84375 297.789062 121.84375 L 127.023438 121.84375 L 249.253906 108.507812 L 249.253906 86.328125 C 249.253906 81.960938 247.363281 78.203125 243.859375 75.597656 C 240.351562 72.992188 236.210938 72.261719 232.027344 73.523438 L 80.984375 118.976562 C 75.246094 120.703125 71.464844 125.785156 71.464844 131.78125 L 71.464844 174.894531 L 122.785156 174.894531 C 131.582031 174.894531 138.773438 182.089844 138.773438 190.882812 C 138.773438 199.679688 131.578125 206.867188 122.785156 206.867188 L 53.488281 206.867188 C 44.695312 206.875 37.5 214.070312 37.5 222.859375 C 37.5 231.652344 44.695312 238.847656 53.488281 238.847656 L 167.957031 238.847656 C 176.75 238.847656 183.941406 246.042969 183.941406 254.832031 C 183.941406 263.625 176.746094 270.820312 167.957031 270.820312 L 121.394531 270.820312 C 112.597656 270.820312 105.40625 278.015625 105.40625 286.804688 C 105.40625 295.601562 112.601562 302.792969 121.394531 302.792969 L 297.78125 302.792969 C 308.257812 302.792969 316.832031 294.21875 316.832031 283.746094 L 316.832031 258.574219 L 281.496094 258.574219 C 278.378906 258.574219 275.832031 256.027344 275.832031 252.90625 C 275.832031 249.789062 278.378906 247.238281 281.496094 247.238281 L 326.703125 247.238281 C 332.65625 247.238281 337.511719 242.382812 337.511719 236.433594 L 337.511719 188.203125 C 337.511719 182.253906 332.660156 177.398438 326.703125 177.398438 L 261.910156 177.398438 C 258.792969 177.398438 256.238281 174.847656 256.238281 171.730469 C 256.238281 168.609375 258.789062 166.058594 261.910156 166.058594 L 316.835938 166.058594 Z M 260.183594 202.40625 C 254.707031 202.40625 250.261719 206.847656 250.261719 212.328125 C 250.261719 217.804688 254.707031 222.246094 260.183594 222.246094 C 265.664062 222.246094 270.105469 217.804688 270.105469 212.328125 C 270.105469 206.84375 265.664062 202.40625 260.183594 202.40625 Z M 236.601562 212.320312 C 236.601562 199.347656 247.210938 188.738281 260.183594 188.738281 L 326.175781 188.738281 L 326.175781 235.90625 L 260.183594 235.90625 C 247.21875 235.90625 236.601562 225.292969 236.601562 212.320312 Z M 236.601562 212.320312 "/></g></g></svg>